<?xml version="1.0" standalone="no"?>
<!DOCTYPE svg PUBLIC "-//W3C//DTD SVG 20010904//EN"
 "http://www.w3.org/TR/2001/REC-SVG-20010904/DTD/svg10.dtd">
<svg version="1.0" xmlns="http://www.w3.org/2000/svg"
 width="1280.000000pt" height="720.000000pt" viewBox="0 0 1280.000000 720.000000"
 preserveAspectRatio="xMidYMid meet">

<g transform="translate(0.000000,720.000000) scale(0.100000,-0.100000)"
fill="#000000" stroke="none">
<path d="M4699 7013 c-6 -16 -33 -89 -60 -163 -28 -74 -63 -169 -79 -210 -34
-88 -127 -335 -177 -470 -19 -52 -52 -140 -73 -195 -21 -55 -75 -199 -120
-320 -45 -121 -94 -254 -110 -295 -59 -155 -112 -297 -146 -389 -37 -100 -105
-283 -154 -411 -16 -41 -45 -120 -65 -175 -20 -55 -40 -109 -45 -120 -5 -11
-34 -90 -65 -175 -67 -183 -163 -437 -175 -465 -28 -64 -138 -370 -135 -374 3
-2 89 77 192 175 104 98 224 213 268 254 44 41 129 122 190 180 174 166 622
588 715 675 47 44 170 160 275 260 104 99 237 225 295 280 58 55 150 143 205
195 270 256 458 433 532 500 44 41 80 80 80 86 -1 6 -67 69 -147 139 -164 145
-236 209 -434 386 -77 68 -160 142 -185 164 -52 45 -197 174 -316 280 -210
189 -240 215 -248 215 -4 0 -12 -12 -18 -27z"/>
<path d="M6069 5597 c-383 -370 -839 -822 -839 -829 0 -8 609 -313 2155 -1078
275 -136 911 -453 1414 -704 503 -251 916 -454 918 -452 2 2 -40 43 -94 92
-116 105 -157 143 -323 295 -110 101 -369 337 -805 734 -71 65 -175 160 -230
210 -55 51 -158 145 -230 210 -151 138 -346 316 -425 390 -30 28 -257 235
-504 460 -247 226 -547 499 -665 608 -119 108 -220 197 -226 197 -5 -1 -71
-60 -146 -133z"/>
<path d="M3919 2358 c-7 -13 -171 -319 -366 -681 -197 -365 -352 -665 -349
-673 4 -11 38 -14 184 -14 158 0 181 2 194 18 8 9 39 62 68 117 29 55 59 108
68 118 14 16 45 17 383 17 326 0 369 -2 384 -16 9 -9 39 -62 67 -118 27 -55
57 -109 66 -118 13 -16 37 -18 203 -18 116 0 190 4 194 10 4 6 -69 149 -161
318 -92 169 -250 460 -351 647 -102 187 -194 357 -206 378 l-21 37 -172 0
c-170 0 -174 0 -185 -22z m241 -483 c23 -44 69 -130 101 -191 32 -61 59 -114
59 -117 0 -4 -99 -7 -220 -7 -161 0 -220 3 -220 12 0 12 100 206 173 336 48
84 45 85 107 -33z"/>
<path d="M5262 1688 l3 -693 629 -3 c456 -1 633 1 642 9 19 16 20 294 2 306
-7 4 -218 10 -468 13 l-455 5 -3 528 -2 527 -175 0 -175 0 2 -692z"/>
<path d="M6820 2368 c-1 -7 -2 -314 -3 -682 -1 -436 2 -674 8 -683 8 -11 44
-13 175 -11 l165 3 5 265 5 265 340 5 340 5 0 145 0 145 -340 5 -340 5 -3 116
c-3 114 -2 117 20 123 13 3 240 6 505 6 l483 0 5 23 c3 12 4 78 3 147 l-3 125
-682 3 c-543 2 -683 0 -683 -10z"/>
<path d="M8733 2368 c-5 -7 -26 -42 -45 -78 -19 -36 -49 -90 -65 -120 -17 -30
-47 -86 -68 -125 -53 -99 -103 -192 -135 -250 -15 -27 -51 -95 -80 -150 -29
-55 -79 -147 -110 -205 -154 -282 -230 -431 -225 -440 10 -15 358 -13 377 3 8
6 41 62 73 122 31 61 62 116 67 123 8 9 97 12 383 12 342 0 373 -1 387 -17 9
-10 39 -64 66 -119 28 -56 58 -109 67 -118 14 -14 44 -16 206 -16 166 0 189 2
189 16 0 9 -59 124 -131 257 -73 133 -147 271 -167 307 -19 36 -47 88 -62 115
-15 28 -41 75 -57 105 -17 30 -57 105 -90 165 -33 61 -81 148 -106 195 -25 47
-63 117 -84 155 l-38 70 -171 3 c-129 2 -174 -1 -181 -10z m291 -591 c52 -98
98 -187 101 -198 6 -18 -1 -19 -214 -19 -153 0 -221 3 -221 11 0 9 67 138 191
367 18 34 25 40 35 30 7 -7 55 -93 108 -191z"/>
<path d="M9421 627 c-38 -19 -61 -58 -68 -114 -10 -86 20 -133 84 -133 24 1
25 2 10 11 -58 34 -63 154 -8 196 34 26 93 6 112 -38 16 -39 7 -124 -16 -149
-17 -19 -17 -20 -1 -20 31 0 57 21 72 55 42 101 -20 205 -121 205 -22 0 -51
-6 -64 -13z"/>
<path d="M7845 618 c-2 -7 -3 -62 -2 -123 l2 -110 93 -3 c62 -2 92 1 92 8 0 7
-21 10 -57 8 -71 -3 -83 4 -83 47 0 39 11 45 86 45 41 0 54 4 54 15 0 11 -16
15 -67 17 l-68 3 0 35 0 35 75 5 c43 3 74 9 73 15 -4 16 -192 19 -198 3z"/>
<path d="M8123 618 c-5 -7 -9 -62 -8 -123 l1 -110 34 -3 c28 -3 32 -1 22 10
-6 8 -12 60 -14 123 -3 105 -12 133 -35 103z"/>
<path d="M8362 508 l3 -123 95 -3 c62 -2 91 1 85 7 -6 5 -39 11 -75 13 -63 3
-65 4 -68 31 -5 44 13 57 79 57 45 0 59 3 59 15 0 11 -16 15 -67 17 -67 3 -68
4 -71 32 -5 38 10 46 91 46 50 0 68 3 65 13 -3 8 -35 13 -102 15 l-97 3 3
-123z"/>
<path d="M8615 594 c4 -22 10 -43 13 -49 4 -5 18 -44 32 -85 l27 -75 38 0 c38
0 39 1 60 60 12 33 25 69 29 80 43 112 42 107 15 103 -26 -4 -29 -9 -62 -108
-13 -41 -31 -76 -38 -78 -10 -2 -19 14 -28 45 -8 26 -17 55 -21 63 -26 58 -38
75 -54 78 -16 4 -18 -1 -11 -34z"/>
<path d="M8922 578 c-11 -29 -31 -83 -45 -120 -31 -81 -24 -99 23 -58 15 13
37 20 65 20 27 0 51 -7 68 -20 38 -30 59 -27 51 8 -4 15 -10 32 -14 37 -4 6
-20 44 -35 85 -35 91 -41 100 -71 100 -18 0 -26 -10 -42 -52z m77 -59 c14 -48
9 -59 -29 -59 -36 0 -45 13 -32 48 6 15 13 35 16 44 9 28 32 11 45 -33z"/>
<path d="M9110 615 c0 -10 10 -15 29 -15 16 0 33 -6 39 -13 6 -7 13 -56 14
-108 3 -86 5 -94 23 -94 18 0 20 8 23 94 1 52 8 101 14 108 6 7 23 13 39 13
19 0 29 5 29 15 0 12 -18 15 -105 15 -87 0 -105 -3 -105 -15z"/>
<path d="M9685 618 c-3 -8 -4 -63 -3 -124 3 -94 5 -109 21 -112 13 -3 17 3 17
26 0 77 40 84 96 17 24 -30 44 -45 60 -45 27 0 32 21 8 40 -8 8 -20 22 -26 33
-8 16 -5 23 18 42 33 27 39 84 11 113 -24 23 -194 32 -202 10z m146 -28 c19
-11 25 -45 11 -66 -11 -18 -90 -28 -107 -14 -17 15 -19 43 -5 71 12 21 68 26
101 9z"/>
<path d="M5913 613 c-331 -2 -513 -7 -513 -13 0 -6 -36 -11 -82 -11 l-83 -2
81 -8 c45 -4 565 -9 1155 -11 1044 -3 1074 -2 1077 16 2 10 -2 22 -10 27 -12
8 -318 8 -1625 2z"/>
<path d="M6083 520 c-380 -3 -695 -8 -699 -12 -4 -5 -4 -11 0 -15 9 -9 908
-21 1614 -22 l552 -1 0 24 c0 17 -7 26 -25 30 -13 3 -188 5 -387 4 -200 -2
-674 -5 -1055 -8z"/>
<path d="M5542 419 c-237 -7 -274 -10 -260 -25 3 -3 514 -6 1134 -7 1123 -2
1129 -2 1129 18 0 20 -7 20 -875 21 -481 0 -989 -3 -1128 -7z"/>
</g>
</svg>
